<?xml version="1.0" standalone="no"?><!DOCTYPE svg PUBLIC "-//W3C//DTD SVG 1.1//EN" "http://www.w3.org/Graphics/SVG/1.1/DTD/svg11.dtd"><svg t="1779079801369" class="icon" viewBox="0 0 1024 1024" version="1.1" xmlns="http://www.w3.org/2000/svg" p-id="6676" xmlns:xlink="http://www.w3.org/1999/xlink" width="180" height="180"><path d="M797.582222 1024H254.862222C177.066667 1024 113.777778 960.284444 113.777778 881.92V517.603556c0-78.336 63.288889-142.051556 141.084444-142.051556h542.72c77.795556 0 141.084444 63.715556 141.084445 142.051556v364.316444C938.666667 960.284444 875.377778 1024 797.582222 1024zM396.856889 608.284444a43.804444 43.804444 0 0 0 43.690667-43.975111 43.804444 43.804444 0 0 0-43.690667-43.975111H314.88a43.804444 43.804444 0 0 0-43.662222 43.975111 43.804444 43.804444 0 0 0 43.662222 43.975111h82.005333z m98.702222 131.982223a43.804444 43.804444 0 0 0 43.690667-44.003556 43.804444 43.804444 0 0 0-43.662222-43.975111h-180.736a43.804444 43.804444 0 0 0-43.662223 43.975111 43.804444 43.804444 0 0 0 43.662223 43.975111h180.736z m-98.702222 131.925333a43.804444 43.804444 0 0 0 43.690667-43.975111 43.804444 43.804444 0 0 0-43.690667-43.975111H314.88a43.804444 43.804444 0 0 0-43.662222 43.975111 43.804444 43.804444 0 0 0 43.662222 43.975111h82.005333z m324.551111-412.728889H331.008c-90.197333 0-163.584-73.870222-163.584-164.693333v-7.907556c0-90.823111 73.386667-164.721778 163.584-164.721778h79.815111v-5.973333C410.851556 52.110222 462.620444 0 526.222222 0c63.601778 0 115.342222 52.110222 115.342222 116.167111v5.973333h79.815112c90.225778 0 163.612444 73.898667 163.612444 164.721778v7.879111c0 90.851556-73.386667 164.750222-163.612444 164.750223z" fill="#30cbe7" p-id="6677"></path></svg>